<svg height="480pt" viewBox="-31 0 479 480" width="480pt" xmlns="http://www.w3.org/2000/svg"><path d="m416.5 288v-200c0-4.417969-3.582031-8-8-8h-112c-4.417969 0-8 3.582031-8 8v200c.054688 32.222656 24.03125 59.390625 56 63.449219v112.550781h-32c-4.417969 0-8 3.582031-8 8s3.582031 8 8 8h80c4.417969 0 8-3.582031 8-8s-3.582031-8-8-8h-32v-112.550781c31.96875-4.058594 55.945312-31.226563 56-63.449219zm-112 0v-192h96v192c0 26.507812-21.492188 48-48 48s-48-21.492188-48-48zm0 0"/><path d="m336.5 199.761719c0 4.417969-3.582031 8-8 8s-8-3.582031-8-8c0-4.421875 3.582031-8 8-8s8 3.578125 8 8zm0 0"/><path d="m384.5 280.238281c0 4.421875-3.582031 8-8 8s-8-3.578125-8-8c0-4.417969 3.582031-8 8-8s8 3.582031 8 8zm0 0"/><path d="m344.738281 192h23.761719v40.238281c0 4.421875 3.582031 8 8 8s8-3.578125 8-8v-48.238281c.023438-2.128906-.8125-4.175781-2.320312-5.679688-1.503907-1.507812-3.550782-2.34375-5.679688-2.320312h-31.761719c-4.417969 0-8 3.582031-8 8s3.582031 8 8 8zm0 0"/><path d="m371.140625 315.601562c3.910156-2.058593 5.414063-6.890624 3.359375-10.800781-2.109375-3.851562-6.886719-5.335937-10.808594-3.359375-7.578125 3.476563-16.351562 3.179688-23.679687-.800781-3.199219-2.160156-3.511719-3.921875-3.511719-4.640625v-48.238281c0-4.421875-3.582031-8-8-8s-8 3.578125-8 8v48.238281c.871094 16.320312 17.191406 23.839844 32 24 6.476562.0625 12.875-1.449219 18.640625-4.398438zm0 0"/><path d="m168.5 110.488281v-62.488281h8c8.835938 0 16-7.164062 16-16v-16c0-8.835938-7.164062-16-16-16h-96c-8.835938 0-16 7.164062-16 16v16c0 8.835938 7.164062 16 16 16h8v62.488281c-52.453125 17.308594-87.914062 66.277344-88 121.511719v224c0 13.253906 10.746094 24 24 24h208c13.253906 0 24-10.746094 24-24v-224c-.085938-55.234375-35.546875-104.203125-88-121.511719zm-88-94.488281h96v16h-96zm24 88v-56h48v56zm24 16c50.03125.082031 93.953125 33.304688 107.648438 81.425781-8.507813-3.183593-16.105469-8.402343-22.128907-15.203125-10.457031-10.054687-22.320312-21.421875-45.519531-21.421875s-35.078125 11.382813-45.535156 21.429688c-9.488282 9.105469-17.664063 16.96875-34.464844 16.96875s-24.945312-7.855469-34.398438-16.953125c-5.722656-5.953125-12.261718-11.070313-19.417968-15.199219 20.613281-31.800781 55.917968-51.011719 93.816406-51.046875zm104 344h-208c-4.417969 0-8-3.582031-8-8v-48h72c4.417969 0 8-3.582031 8-8s-3.582031-8-8-8h-72v-112h72c4.417969 0 8-3.582031 8-8s-3.582031-8-8-8h-72v-32c.015625-16.234375 3.585938-32.269531 10.464844-46.976562 5.921875 3.472656 11.3125 7.785156 16 12.800781 10.488281 10 22.335937 21.375 45.535156 21.375s35.078125-11.382813 45.535156-21.429688c9.488282-9.105469 17.664063-16.96875 34.464844-16.96875s24.960938 7.855469 34.457031 16.953125c9.488281 10.894532 22.421875 18.214844 36.648438 20.742188.566406 4.480468.867187 8.988281.894531 13.503906v32h-72c-4.417969 0-8 3.582031-8 8s3.582031 8 8 8h72v112h-72c-4.417969 0-8 3.582031-8 8s3.582031 8 8 8h72v48c0 4.417969-3.582031 8-8 8zm0 0"/><path d="m144.5 272c0 4.417969-3.582031 8-8 8s-8-3.582031-8-8 3.582031-8 8-8 8 3.582031 8 8zm0 0"/><path d="m128.5 400c0 4.417969-3.582031 8-8 8s-8-3.582031-8-8 3.582031-8 8-8 8 3.582031 8 8zm0 0"/></svg>