<?xml version="1.0"?>
<svg xmlns="http://www.w3.org/2000/svg" height="512px" viewBox="0 0 512.00038 512" width="512px"><path d="m284 318c-5.523438 0-10 4.476562-10 10v174c0 5.523438 4.476562 10 10 10s10-4.476562 10-10v-174c0-5.523438-4.476562-10-10-10zm0 0" fill="#FFFFFF"/><path d="m284 278c-2.628906 0-5.210938 1.070312-7.070312 2.929688-1.859376 1.859374-2.929688 4.441406-2.929688 7.070312s1.070312 5.210938 2.929688 7.070312c1.859374 1.859376 4.441406 2.929688 7.070312 2.929688s5.210938-1.070312 7.070312-2.929688c1.859376-1.859374 2.929688-4.441406 2.929688-7.070312s-1.070312-5.210938-2.929688-7.070312c-1.859374-1.859376-4.441406-2.929688-7.070312-2.929688zm0 0" fill="#FFFFFF"/><path d="m509.070312 108.929688-52-52c-1.875-1.875-4.417968-2.929688-7.070312-2.929688h-156v-34.332031c0-10.84375-8.820312-19.667969-19.667969-19.667969h-36.664062c-10.84375 0-19.667969 8.824219-19.667969 19.667969v174.460937h-156c-2.652344 0-5.195312 1.050782-7.070312 2.925782l-52 52c-3.90625 3.90625-3.90625 10.238281 0 14.144531l52 52c1.875 1.875 4.417968 2.929687 7.070312 2.929687h156v183.871094c0 5.523438 4.476562 10 10 10s10-4.476562 10-10v-482h36v228c0 5.523438 4.476562 10 10 10s10-4.476562 10-10v-70h156c2.652344 0 5.195312-1.054688 7.070312-2.929688l52-52c3.90625-3.902343 3.90625-10.234374 0-14.140624zm-291.570312 189.199218h-151.355469l-42-42 42-42h151.355469zm228.359375-140.128906h-151.359375v-84h151.355469l42 42zm0 0" fill="#FFFFFF"/><path d="m424.753906 106h-87.671875c-5.519531 0-10 4.476562-10 10s4.480469 10 10 10h87.671875c5.523438 0 10-4.476562 10-10s-4.476562-10-10-10zm0 0" fill="#FFFFFF"/><path d="m87.164062 266h87.671876c5.523437 0 10-4.476562 10-10s-4.476563-10-10-10h-87.671876c-5.523437 0-10 4.476562-10 10s4.476563 10 10 10zm0 0" fill="#FFFFFF"/></svg>
